<svg xmlns="http://www.w3.org/2000/svg" viewBox="0 0 1087.98 366.4"><defs><style>.cls-1{opacity:0.6;}.cls-2{fill:#009ca6;fill-rule:evenodd;}</style></defs><g id="Layer_2" data-name="Layer 2"><g id="Layer_1-2" data-name="Layer 1"><g class="cls-1"><path class="cls-2" d="M177.41,70.71c32-2.42,59.77,10.66,82,29.46,1.82,1.54,2,2.22,3.66,3.86,4.79,4.85,4.75,4.46,9.78,11,53.84,69.63,7.5,175.72-82.34,180.59C125.83,299.1,73.88,250,70.84,189.84,67.66,126.72,113.51,75.55,177.41,70.71ZM59.62,179.14c0,30.47,6.45,51.61,22.13,74.75,20.41,30.1,59.72,53,96.14,53,21.82,0,39.52-2.44,57.67-11.53,8.35-4.17,10.9-5.47,18.71-10.86,7.35-5.08,10.19-7.88,16.25-13.94,11.88-11.88,17.24-20,24.6-34.54,17.38-34.5,15.21-81.56-4.5-114.21-2-3.37-3.77-6-5.91-9.19-3.83-5.77-15.52-19-21.17-23.49C253.38,80.9,248.14,77.48,236,71.35c-34.68-17.48-81.71-15.22-114.6,4.73C105.47,85.74,93,96.68,82.27,111.83,69.7,129.6,59.62,154.93,59.62,179.14Z"/><path class="cls-2" d="M75.34,188.58c0-19.88,1.53-34.29,10.06-51.6a118.77,118.77,0,0,1,14.74-23,121.68,121.68,0,0,1,12.8-13c15.46-13.67,42.52-25.64,63.69-25.64,20.32,0,34.77,1.14,52.85,10.06a100.58,100.58,0,0,1,26.57,18.1c4,3.7,5.66,4.94,9.73,9.77,2,2.32,3.72,4.57,5.47,7.11,10.76,15.58,19.88,36.5,19.88,57.5,0,19.88-1.53,34.3-10.06,51.6A101,101,0,0,1,263,256c-3.7,4-4.94,5.66-9.77,9.73a117.38,117.38,0,0,1-23.3,15.08c-17.43,8.72-32.05,10.27-52,10.27-24.28,0-50.16-12.05-67.47-28.16-4-3.69-5.66-4.94-9.73-9.77-2-2.32-3.72-4.57-5.47-7.11a113.91,113.91,0,0,1-9.6-16.19c-4.82-10.4-10.28-26.52-10.28-41.31Zm-2.19,3.77c2,16.85,5.5,29.88,12.52,42.51a117.43,117.43,0,0,0,10.94,16.75L110,265.91c10.23,8.27,19.84,15.42,34.61,20.78,13.77,5,30.7,8.34,47.48,6.7,23.92-2.34,42.29-10.14,59.6-23.5a51.86,51.86,0,0,0,7.35-6.48c2.15-2.33,4.82-4.39,6.91-6.9,34.71-41.63,38.14-97.66,4-141.69L256.5,100.55c-22.12-18.65-50.94-30.5-82.08-27.46-16.42,1.6-30.9,5.85-42.85,12.55-10.13,5.68-23.65,15.38-31,24.35-8.24,10.08-15.59,19.92-20.79,34.6C74.9,158.39,71.16,175.55,73.15,192.35Z"/><path class="cls-2" d="M73.15,192.35c-2-16.8,1.75-34,6.64-47.76,5.2-14.68,12.55-24.52,20.79-34.6,7.34-9,20.86-18.67,31-24.35,12-6.7,26.43-11,42.85-12.55,31.14-3,60,8.81,82.08,27.46l13.39,14.27c34.17,44,30.74,100.06-4,141.69-2.09,2.51-4.76,4.57-6.91,6.9a51.86,51.86,0,0,1-7.35,6.48c-17.31,13.36-35.68,21.16-59.6,23.5-16.78,1.64-33.71-1.7-47.48-6.7-14.77-5.36-24.38-12.51-34.61-20.78l-13.36-14.3a117.43,117.43,0,0,1-10.94-16.75c-7-12.63-10.54-25.66-12.52-42.51ZM177.41,70.71c-63.9,4.84-109.75,56-106.57,119.13,3,60.17,55,109.26,119.66,105.76,89.84-4.87,136.18-111,82.34-180.59-5-6.52-5-6.13-9.78-11-1.63-1.64-1.84-2.32-3.66-3.86C237.18,81.37,209.45,68.29,177.41,70.71Z"/><path class="cls-2" d="M175.37,332.64c0,9.88-4.4,18.87-4.4,21.39,0,6.56,5.88,12.19,12,12.36,7,.2,12.51-6.74,12.51-11.73,0-4.21-4.47-9.7-4.4-25.79,0-9.89,2.77-8.18-15.73-8.18Z"/><path class="cls-2" d="M332.65,175.37h-12c0,5.84-.5,10.86.63,15.72,11.49,0,14.9-.4,25.43,2.26,1.71.43,6.55,2.15,7.29,2.15,9.36,0,17-12,9-20.32a10.9,10.9,0,0,0-3.51-2.78C351.17,168.34,347.6,175.37,332.65,175.37Z"/><path class="cls-2" d="M171,11.8c0,3.74,4.4,11.69,4.4,22v12H191.1c0-11.84-.63-15.7,2.64-27.55,1.58-5.71,3-9-1.51-13.84-5.56-6-13.16-5.92-18.58.66C172.6,6.31,171,9.9,171,11.8Z"/><path class="cls-2" d="M11.81,195.5c3.95,0,10.24-4.46,25.16-4.41,12.34,0,8.11.23,8.3-6.23.29-9.53,3.18-9.56-7-9.49-15.86.1-23.79-4.41-25.8-4.41-6.65,0-12,5.86-12.42,12.09C-.36,189.55,6.66,195.5,11.81,195.5Z"/><path class="cls-2" d="M275.4,80.37l10.54,10.85c5.84-4,7.3-9.41,19.87-16.3,4-2.19,10.48-5,10.48-12.16,0-14-17.08-15.69-21.61-7.78C281.45,78.08,280.63,72.56,275.4,80.37Z"/><path class="cls-2" d="M50.18,62.76c0,10.18,13.11,11.42,22.5,20.91,2.44,2.47,5,5.56,7.7,7.4L91.22,80.53C88,75.8,83.27,73.65,77.51,65L73.6,58.22c-.49-.9-.82-1.63-1.29-2.49C67.12,46.3,50.18,49.22,50.18,62.76Z"/><path class="cls-2" d="M50.18,303.7c0,13.23,16,16.18,21.67,7.83,2.88-4.21,4.53-10.5,11.51-17.43,2.07-2.06,4.91-6,7.71-6.75-.27-3.29-3.24-4.82-5.19-6.77s-3.77-4.24-6.13-5.81c-5.36,10.12-17.62,15.32-24.06,19.34C53.08,295.74,50.18,299.81,50.18,303.7Z"/><path class="cls-2" d="M274.62,286.56c3,.91,5.77,4.86,7.86,6.92,9.29,9.18,9.89,17.64,15.47,21,4.86,2.95,10,2,14.06-1.24,6.67-5.33,5.3-15.71-2.52-19.74-1-.52-1.18-.64-2.45-1.33-6.89-3.75-16.76-10.71-20.32-17.42Z"/><path class="cls-2" d="M103.65,280.43c-4.85-1.3-12.23-12.75-19.5-17.62,0,3-3.16,11.56,3,17.1a15.7,15.7,0,0,0,7.77,3.5C98.05,283.62,102.24,282.36,103.65,280.43Z"/><path class="cls-2" d="M82.89,95.47a24.58,24.58,0,0,0,1.89,6.92c4-.33,6.56-6.55,13.93-12.49a64.33,64.33,0,0,0,4.94-4.49c-2.78-.65-10.82-6.31-18.09,3.29C84.55,90,82.89,93.51,82.89,95.47Z"/><path class="cls-2" d="M263.45,85.41c2.43,3.63,7.95,6.88,13.11,13.3.71.87,3.87,4.48,4.5,4.94C288.32,89.93,274.76,77.83,263.45,85.41Z"/><path class="cls-2" d="M263.45,281.69c10.79,5.18,25.46-4,17.61-18.88l-8.65,9.6C269,275.88,265.78,277.27,263.45,281.69Z"/><path class="cls-2" d="M182.92,319.43c6.72,0,12.45-4.88,12.58-10.69-4.8,0-7,.63-11.95.63-5.33,0-8-.63-13.21-.63C172.12,312.44,174.52,319.43,182.92,319.43Z"/><path class="cls-2" d="M309.37,182.92c0,5.2-.63,7.88-.63,13.21,4.37-2.1,10.7-4.17,10.7-13.21,0-8.39-6.95-10.79-10.7-12.59C308.74,175.5,309.37,178,309.37,182.92Z"/><path class="cls-2" d="M47,182.92c0,9,6.27,11.09,10.69,13.21L57,183.56c-.22-4.93.76-8.11.76-13.23C52.43,171.57,47,176.43,47,182.92Z"/><path class="cls-2" d="M170.34,57.73,182.91,57c4.93-.22,8.1.77,13.22.77C194,53.36,192,47,182.92,47,174.54,47,172.14,54,170.34,57.73Z"/><path class="cls-2" d="M77,188.49c0-19.56,1.5-33.75,9.9-50.78a116.23,116.23,0,0,1,14.51-22.65A119.6,119.6,0,0,1,114,102.27C129.26,88.81,155.9,77,176.73,77c20,0,34.23,1.13,52,9.9a99.3,99.3,0,0,1,26.14,17.82c3.91,3.64,5.58,4.86,9.58,9.62a88.23,88.23,0,0,1,5.39,7c10.59,15.34,19.56,35.93,19.56,56.61,0,19.56-1.5,33.75-9.9,50.78a99.25,99.25,0,0,1-17.81,26.15c-3.64,3.91-4.87,5.57-9.62,9.58a116,116,0,0,1-22.93,14.84C212,287.9,197.62,289.43,178,289.43c-23.89,0-49.36-11.87-66.4-27.72-3.91-3.64-5.58-4.86-9.58-9.62a88.23,88.23,0,0,1-5.39-7,112.45,112.45,0,0,1-9.45-15.94C82.41,218.92,77,203.05,77,188.49Zm-2.17,3.72c2,16.59,5.42,29.41,12.33,41.84A117.23,117.23,0,0,0,98,250.54l13.15,14.08c10.07,8.13,19.53,15.17,34.06,20.45,13.56,4.92,30.22,8.2,46.74,6.59,23.55-2.3,41.63-10,58.67-23.13a50.76,50.76,0,0,0,7.23-6.37c2.11-2.3,4.74-4.33,6.81-6.8,34.16-41,37.54-96.13,3.9-139.47l-13.18-14c-21.77-18.36-50.14-30-80.79-27-16.16,1.58-30.41,5.77-42.18,12.36-10,5.59-23.28,15.14-30.51,24-8.1,9.92-15.34,19.61-20.46,34.06C76.6,158.78,72.92,175.67,74.87,192.21Z"/><path class="cls-2" d="M182.71,107c11-2.31,14.5,14.39,3.64,16.79-11.23,2.48-15.17-14.36-3.64-16.79ZM140.53,213.46c-.72-.65-.69,1-.56-1.12l7.85-.16c-8.43-14.51-6.12-6.86-12-23.37l-.94-2c-5.57,5.44-12.93,22.81-12.21,33.78,2.68-1.27,4.74-3.76,7.62-4.87,7,27.76,35.8,33.39,41.79,37.49,10,6.85,10.14,12.12,12.82,14,1.17-3.91,8.2-10.81,11.52-13.11,5.49-3.81,11.9-4.49,18.12-7.74,10.33-5.41,21.12-14.54,22.53-29.34l6.83,2.92c4-6.21-.34-21.75-5.74-30.05l-2.66-3c-3.65,6.07-3.69,10.81-10.19,19.08-1.7,2.16-3.35,3.16-4.9,5l-.24,1.44,7.95,1.35c-2.18,6.23-9.46,13.08-16.9,14.64-11,2.31-16.35-4.09-17.7-13.45-1.19-8.24-.71-21.87-.89-30.8-.16-7.7-1.41-24.76-.42-31.34h23.7L223.24,141l-32.15-.16L190.87,130c9.62-3.58,13.14-17.68,5-26-3-3.05-4.91-2.65-8.67-4.74h-5.76c-3.41,1.91-11.63,3.22-13.08,13.76-1.22,8.9,3.38,13.09,9.14,17.16.21,2.71.49,8.06-.63,10-2.33,1.29-26.62.52-31.62.56.73,2.15,5.91,10.06,7.28,11.6l23.92.47c1,7.41-.82,53.73-2.4,61-1.77,8.21-6.57,16.32-16.6,14.52C150.89,227.19,142.8,218.58,140.53,213.46Z"/><path class="cls-2" d="M456.82,154.38a33.66,33.66,0,0,1-1.78,11,22.38,22.38,0,0,1-6,9.21A30.16,30.16,0,0,1,437.88,181a55,55,0,0,1-17.31,2.36H408v40.27H394.52V126.9h28.55a59,59,0,0,1,13.43,1.43,29.41,29.41,0,0,1,10.66,4.7,22.14,22.14,0,0,1,7.09,8.51,29.13,29.13,0,0,1,2.57,12.84ZM408,171.66h6.5q3.4,0,6.88-.07a53.09,53.09,0,0,0,6.59-.54,27.86,27.86,0,0,0,5.85-1.52,13.29,13.29,0,0,0,4.7-3,12.82,12.82,0,0,0,3.16-4.91,20.73,20.73,0,0,0,1.12-7.27,16.36,16.36,0,0,0-1.71-8,13,13,0,0,0-4.51-4.81,17.92,17.92,0,0,0-6.43-2.37,46.91,46.91,0,0,0-7.51-.6H408Z"/><path class="cls-2" d="M471.2,171.5c0-.61,0-1.66,0-3.16s-.05-3.16-.07-4.93-.07-3.63-.14-5.57-.14-3.41-.19-4.42h12l.61,12.16a29.62,29.62,0,0,1,4.89-6.15,29,29,0,0,1,5.38-4.12A22.14,22.14,0,0,1,499,153a17.58,17.58,0,0,1,4.79-.72c.91,0,1.9,0,3,.09s2.11.19,3.06.33L509,165.25c-1.24-.23-2.41-.39-3.51-.53a26.55,26.55,0,0,0-3.35-.21,19.15,19.15,0,0,0-8.23,1.61,14.64,14.64,0,0,0-5.59,4.49,19.67,19.67,0,0,0-3.18,6.85,35.17,35.17,0,0,0-1,8.77v37.35H471.2Z"/><path class="cls-2" d="M581.12,188.5A49.48,49.48,0,0,1,579,203.19a32.83,32.83,0,0,1-6.17,11.48,27.68,27.68,0,0,1-10.08,7.51,34.26,34.26,0,0,1-13.9,2.66,32.78,32.78,0,0,1-13.35-2.59,27.54,27.54,0,0,1-9.92-7.32,33.45,33.45,0,0,1-6.19-11.3,46.5,46.5,0,0,1-2.15-14.52,52.72,52.72,0,0,1,1.84-14.2,33.18,33.18,0,0,1,5.78-11.69,27.68,27.68,0,0,1,10.1-8,33.86,33.86,0,0,1,14.71-2.94,31,31,0,0,1,14.36,3,27.77,27.77,0,0,1,9.75,8.11,33,33,0,0,1,5.55,11.6,51.59,51.59,0,0,1,1.75,13.45Zm-51.08.56a46.77,46.77,0,0,0,1.1,10.41,24.33,24.33,0,0,0,3.37,8.14A16,16,0,0,0,540.4,213a18.25,18.25,0,0,0,8.73,1.92,19.46,19.46,0,0,0,7.6-1.47,15.36,15.36,0,0,0,6.06-4.66,23.48,23.48,0,0,0,4-8.11,43.24,43.24,0,0,0,1.42-11.86q0-12.81-4.77-19.67t-13.89-6.85a18.79,18.79,0,0,0-7.34,1.47,16.31,16.31,0,0,0-6.23,4.73,24.49,24.49,0,0,0-4.35,8.32A41.7,41.7,0,0,0,530,189.06Z"/><path class="cls-2" d="M703.5,217.29a79.94,79.94,0,0,1-15.62,6.13,53.67,53.67,0,0,1-14,2,42.43,42.43,0,0,1-13.26-2,38.09,38.09,0,0,1-10.74-5.38,39.37,39.37,0,0,1-8.3-8.11,48,48,0,0,1-5.91-10.18,55.43,55.43,0,0,1-3.51-11.55A65.3,65.3,0,0,1,631,176a67.92,67.92,0,0,1,1.19-12.65,59.32,59.32,0,0,1,3.63-12,50.72,50.72,0,0,1,6-10.55,41.2,41.2,0,0,1,8.34-8.44,38.46,38.46,0,0,1,10.6-5.59,39.29,39.29,0,0,1,12.84-2,38.25,38.25,0,0,1,9.14,1.1,28.45,28.45,0,0,1,8.26,3.49,26.74,26.74,0,0,1,6.9,6.34,32.3,32.3,0,0,1,4.88,9.56l-12,2.88a16.43,16.43,0,0,0-2.76-5.54,14.24,14.24,0,0,0-4-3.49,15.13,15.13,0,0,0-4.82-1.87,27.9,27.9,0,0,0-5.45-.54A23.08,23.08,0,0,0,661.62,140a28.28,28.28,0,0,0-8.94,8.63,40.77,40.77,0,0,0-5.49,12.53,58.06,58.06,0,0,0-1.85,14.78,54,54,0,0,0,1.78,13.83,37.32,37.32,0,0,0,5.49,12,28.53,28.53,0,0,0,9.31,8.51,26.27,26.27,0,0,0,13.29,3.23,40,40,0,0,0,11-1.69,76.3,76.3,0,0,0,12.75-5Z"/><path class="cls-2" d="M719.08,160.67A50.17,50.17,0,0,1,725,157.3a62.43,62.43,0,0,1,6.59-2.64,49.69,49.69,0,0,1,6.81-1.75,38.5,38.5,0,0,1,6.64-.61,33.85,33.85,0,0,1,9.35,1.26,21.32,21.32,0,0,1,7.74,4,18.68,18.68,0,0,1,5.26,6.94,24.71,24.71,0,0,1,1.92,10.27V203c0,3.08.07,5.89.19,8.42s.3,4.67.51,6.5c.24,2.15.5,4,.82,5.68H759.3a36.42,36.42,0,0,1-.37-4.33c-.12-2.1-.23-4.46-.33-7.06a26.3,26.3,0,0,1-4.91,6.24,24.08,24.08,0,0,1-5.54,3.89,22.11,22.11,0,0,1-5.87,2,33.81,33.81,0,0,1-6,.54,29.24,29.24,0,0,1-9.3-1.4,19.71,19.71,0,0,1-7.07-4.07,18.29,18.29,0,0,1-4.49-6.43,21.74,21.74,0,0,1-1.56-8.49,23.55,23.55,0,0,1,.51-4.79,21,21,0,0,1,1.69-5,22,22,0,0,1,3.06-4.72,20.66,20.66,0,0,1,4.72-4,26.49,26.49,0,0,1,6.62-3,48.3,48.3,0,0,1,7.51-1.56,71.42,71.42,0,0,1,7.76-.63q3.9-.11,7.51-.1H757v-5a18.61,18.61,0,0,0-1-6.34,10.15,10.15,0,0,0-2.67-4.09,10.62,10.62,0,0,0-4-2.22,16.75,16.75,0,0,0-4.79-.68,27.17,27.17,0,0,0-5.82.65,44.21,44.21,0,0,0-5.9,1.69c-1.91.68-3.74,1.43-5.45,2.24s-3.22,1.66-4.56,2.48l-3.76-8.65Zm33.77,48.5a12.82,12.82,0,0,0,2.1-3.34,20,20,0,0,0,1.22-4.19,41.32,41.32,0,0,0,.63-5.21c.12-1.92.16-4.09.16-6.53h-2q-4.71,0-9.76.35A35.24,35.24,0,0,0,736,192a16.1,16.1,0,0,0-6.9,4.42c-1.8,2-2.71,4.73-2.71,8.21a12.1,12.1,0,0,0,.6,3.74,9.07,9.07,0,0,0,2,3.25,10.38,10.38,0,0,0,3.34,2.34,12.17,12.17,0,0,0,4.89.89,27.77,27.77,0,0,0,9.12-1.45A14.4,14.4,0,0,0,752.85,209.17Z"/><path class="cls-2" d="M790.69,252.06V174.3c0-2,0-4.25-.05-6.59s-.07-4.56-.09-6.62c-.12-2.36-.21-4.93-.28-7.67h12.28l.91,10.45a26.35,26.35,0,0,1,4.91-5.61,26.72,26.72,0,0,1,5.49-3.65,24,24,0,0,1,5.62-1.92,29.37,29.37,0,0,1,5.4-.53,25,25,0,0,1,10.5,2.27,24.08,24.08,0,0,1,8.72,6.78,33.84,33.84,0,0,1,6,11.36,52.41,52.41,0,0,1,2.22,16,50.48,50.48,0,0,1-2.29,16,32.5,32.5,0,0,1-6.25,11.27,25.4,25.4,0,0,1-9.17,6.71,28,28,0,0,1-11,2.22,25.26,25.26,0,0,1-11.41-2.5,32.59,32.59,0,0,1-8.84-6.43l.28,12.84v23.31Zm31-37.18a15.66,15.66,0,0,0,9.19-2.48,17,17,0,0,0,5.52-6.31,27.05,27.05,0,0,0,2.69-8.61,61.23,61.23,0,0,0,.72-9.35,55.81,55.81,0,0,0-.89-10.2,25.4,25.4,0,0,0-2.92-8.26,15.37,15.37,0,0,0-5.4-5.52,15.61,15.61,0,0,0-8.24-2,18.17,18.17,0,0,0-7.15,1.45,21.87,21.87,0,0,0-6,3.62,19.07,19.07,0,0,0-4.09,4.85,10.06,10.06,0,0,0-1.54,5.09v21.5a15.74,15.74,0,0,0,1.1,5.61A15.58,15.58,0,0,0,808,209.5a18,18,0,0,0,5.63,3.86A19.44,19.44,0,0,0,821.68,214.88Z"/><path class="cls-2" d="M894.8,214.88a34.85,34.85,0,0,0,4.24-.28c1.54-.19,2.85-.37,3.9-.61v9.43c-1.42.35-3.15.67-5.19,1a42.1,42.1,0,0,1-6.15.44A30.67,30.67,0,0,1,884,224a13.3,13.3,0,0,1-5.77-3,13.45,13.45,0,0,1-3.65-5.71,27.34,27.34,0,0,1-1.26-9V163.66H862.58V153.42h11l2.27-16.82,10.36-2.26v19.08h16.41v10.24H886.25v41.16a22.81,22.81,0,0,0,.3,3.84,8.06,8.06,0,0,0,1.24,3.2,6.92,6.92,0,0,0,2.59,2.2A10.13,10.13,0,0,0,894.8,214.88Z"/><path class="cls-2" d="M917.65,160.67a51.83,51.83,0,0,1,5.92-3.37,63.48,63.48,0,0,1,6.6-2.64,49.55,49.55,0,0,1,6.8-1.75,38.5,38.5,0,0,1,6.64-.61,34,34,0,0,1,9.36,1.26,21.4,21.4,0,0,1,7.74,4,18.79,18.79,0,0,1,5.26,6.94,24.71,24.71,0,0,1,1.92,10.27V203c0,3.08.07,5.89.18,8.42s.31,4.67.52,6.5c.23,2.15.49,4,.82,5.68H957.88a38,38,0,0,1-.38-4.33c-.11-2.1-.23-4.46-.32-7.06a26.56,26.56,0,0,1-4.91,6.24,24.13,24.13,0,0,1-5.55,3.89,22,22,0,0,1-5.87,2,33.78,33.78,0,0,1-6,.54,29.26,29.26,0,0,1-9.31-1.4,19.66,19.66,0,0,1-7.06-4.07,18.17,18.17,0,0,1-4.49-6.43,21.74,21.74,0,0,1-1.57-8.49,23.59,23.59,0,0,1,.52-4.79,21,21,0,0,1,1.68-5,22,22,0,0,1,3.06-4.72,20.94,20.94,0,0,1,4.73-4,26.49,26.49,0,0,1,6.62-3,48.42,48.42,0,0,1,7.5-1.56,71.8,71.8,0,0,1,7.77-.63c2.59-.07,5.1-.1,7.5-.1h3.7v-5a18.59,18.59,0,0,0-1-6.34,10.05,10.05,0,0,0-2.67-4.09,10.5,10.5,0,0,0-4-2.22,16.77,16.77,0,0,0-4.8-.68,27.17,27.17,0,0,0-5.82.65,44.07,44.07,0,0,0-5.89,1.69,57.86,57.86,0,0,0-5.45,2.24,49.39,49.39,0,0,0-4.56,2.48l-3.77-8.65Zm33.77,48.5a12.85,12.85,0,0,0,2.11-3.34,20.68,20.68,0,0,0,1.21-4.19,39.46,39.46,0,0,0,.64-5.21c.11-1.92.16-4.09.16-6.53h-2q-4.69,0-9.75.35a35.4,35.4,0,0,0-9.24,1.78,16.16,16.16,0,0,0-6.9,4.42c-1.8,2-2.71,4.73-2.71,8.21a11.82,11.82,0,0,0,.61,3.74,9,9,0,0,0,2,3.25,10.31,10.31,0,0,0,3.35,2.34,12.12,12.12,0,0,0,4.88.89,27.88,27.88,0,0,0,9.13-1.45A14.37,14.37,0,0,0,951.42,209.17Z"/><path class="cls-2" d="M1005.26,223.58H992.49V163.66H982.11V153.42h23.15v70.16Zm1.22-94.29v11.92H991.27V129.29Z"/><path class="cls-2" d="M1075.21,223.58V178.26q0-7.75-3.79-11.95t-10.71-4.19c-5.52,0-9.82,1.92-13,5.73s-4.67,9.4-4.67,16.72v39h-12.91v-60h-10.53v-10.2h22.45l.56,10.24a42.63,42.63,0,0,1,4.19-4.95,20.93,20.93,0,0,1,4.68-3.61,21.86,21.86,0,0,1,5.56-2.19,28,28,0,0,1,6.72-.75,31.32,31.32,0,0,1,8,1.12,21.42,21.42,0,0,1,13.8,11.62,27.9,27.9,0,0,1,2.36,12.21v46.47Z"/><path class="cls-2" d="M416.46,304.94a27.06,27.06,0,0,0,7.73-1,15.45,15.45,0,0,0,5.35-2.7,10.9,10.9,0,0,0,3.11-4.05,12.56,12.56,0,0,0,1-5,11.47,11.47,0,0,0-.93-4.79,10.4,10.4,0,0,0-2.92-3.69,25.36,25.36,0,0,0-5.18-3.11c-2.11-1-4.66-2-7.6-3.05a60,60,0,0,1-9.78-4.4,26.28,26.28,0,0,1-6.43-5.09,16.7,16.7,0,0,1-3.53-6.07,23.78,23.78,0,0,1-1.07-7.34,19.58,19.58,0,0,1,1.87-8.77,17.85,17.85,0,0,1,5.16-6.35,22.84,22.84,0,0,1,7.65-3.89,32.77,32.77,0,0,1,9.46-1.31,37.15,37.15,0,0,1,11,1.77A46.41,46.41,0,0,1,443,241.8l-4.19,7.95a39.45,39.45,0,0,0-9.54-4.54,29.47,29.47,0,0,0-8.64-1.4q-6.66,0-10.27,2.81a9.33,9.33,0,0,0-3.59,7.77,13.29,13.29,0,0,0,.76,4.75,8.81,8.81,0,0,0,2.52,3.52,17.73,17.73,0,0,0,4.54,2.85c1.87.86,4.19,1.75,6.95,2.7a68.56,68.56,0,0,1,11.66,5,25.25,25.25,0,0,1,6.8,5.23,14.23,14.23,0,0,1,3.2,5.83,28.47,28.47,0,0,1,.79,6.89,24.79,24.79,0,0,1-1.81,9.71,19.92,19.92,0,0,1-5.24,7.33,22.87,22.87,0,0,1-8.4,4.66,37.41,37.41,0,0,1-11.38,1.6,41,41,0,0,1-10.63-1.54,57.38,57.38,0,0,1-12-4.92l3.5-8.49a58,58,0,0,0,9.85,4.09A29.68,29.68,0,0,0,416.46,304.94Z"/><path class="cls-2" d="M476.4,306.06a27.79,27.79,0,0,0,3.37-.22c1.23-.15,2.28-.3,3.11-.49v7.51c-1.13.28-2.51.54-4.13.78a33.46,33.46,0,0,1-4.9.36,24.37,24.37,0,0,1-6-.69,10.56,10.56,0,0,1-4.61-2.37,10.76,10.76,0,0,1-2.9-4.54,21.79,21.79,0,0,1-1-7.16v-34h-8.57v-8.16h8.8l1.8-13.39,8.25-1.81v15.2h13.08v8.16H469.58v32.78a18,18,0,0,0,.25,3.06,6.47,6.47,0,0,0,1,2.55,5.57,5.57,0,0,0,2.07,1.75A8.07,8.07,0,0,0,476.4,306.06Z"/><path class="cls-2" d="M494.6,262.89a41,41,0,0,1,4.71-2.69,49.26,49.26,0,0,1,5.26-2.1,39.58,39.58,0,0,1,5.42-1.4,30.42,30.42,0,0,1,5.29-.48,27,27,0,0,1,7.45,1,16.93,16.93,0,0,1,6.16,3.17,14.88,14.88,0,0,1,4.19,5.53,19.65,19.65,0,0,1,1.53,8.18v22.48c0,2.46.06,4.69.15,6.71s.24,3.72.41,5.17c.19,1.72.39,3.23.65,4.53h-9.18a28.59,28.59,0,0,1-.3-3.45c-.09-1.67-.19-3.55-.26-5.62a21,21,0,0,1-3.91,5,19,19,0,0,1-4.42,3.09,17.56,17.56,0,0,1-4.67,1.59,27.6,27.6,0,0,1-4.75.43,23.4,23.4,0,0,1-7.42-1.12,15.89,15.89,0,0,1-5.62-3.24,14.49,14.49,0,0,1-3.58-5.12,17.31,17.31,0,0,1-1.24-6.77,19.37,19.37,0,0,1,.4-3.81,16.49,16.49,0,0,1,1.35-4,16.78,16.78,0,0,1,2.44-3.76,16.11,16.11,0,0,1,3.76-3.23,21,21,0,0,1,5.27-2.36,38.9,38.9,0,0,1,6-1.25,55.36,55.36,0,0,1,6.18-.5c2.07-.06,4.06-.08,6-.08h2.95v-4a14.86,14.86,0,0,0-.77-5,8,8,0,0,0-2.12-3.26,8.4,8.4,0,0,0-3.17-1.77,13.67,13.67,0,0,0-3.82-.54,21.78,21.78,0,0,0-4.64.52,35.9,35.9,0,0,0-4.69,1.34,44.14,44.14,0,0,0-4.34,1.79,39.61,39.61,0,0,0-3.63,2l-3-6.89Zm26.9,38.63a10.09,10.09,0,0,0,1.67-2.67,15.91,15.91,0,0,0,1-3.33,32.06,32.06,0,0,0,.5-4.16c.1-1.52.14-3.25.14-5.19h-1.59q-3.74,0-7.77.28a28.37,28.37,0,0,0-7.35,1.41,13,13,0,0,0-5.5,3.52,10.43,10.43,0,0,0-1.67,9.52,7.1,7.1,0,0,0,1.56,2.59,8.24,8.24,0,0,0,2.66,1.86,9.7,9.7,0,0,0,3.9.71,22.28,22.28,0,0,0,7.26-1.15A11.54,11.54,0,0,0,521.5,301.52Z"/><path class="cls-2" d="M578.33,265.27h-12.5V313H555.55V265.27H545.28V258l10.27-.93V255a40.25,40.25,0,0,1,.76-8.27,14.18,14.18,0,0,1,2.66-5.94,11.23,11.23,0,0,1,5.09-3.6,23.06,23.06,0,0,1,8.05-1.19,28.44,28.44,0,0,1,4.76.41,47.91,47.91,0,0,1,4.73,1l-1.32,8.33c-1.12-.23-2.27-.41-3.42-.58a23.23,23.23,0,0,0-3.34-.24,11.13,11.13,0,0,0-4,.58,5,5,0,0,0-2.33,1.64,6,6,0,0,0-1.08,2.75,23.52,23.52,0,0,0-.28,3.86v3.35h12.5Z"/><path class="cls-2" d="M637.35,313H627.18V265.72H603.27V313H593V265.72H582.72v-7.23l10.27-.93V255c0-1.84,0-3.46.18-4.86a27.48,27.48,0,0,1,.58-3.78,15.22,15.22,0,0,1,1-2.93,11.27,11.27,0,0,1,1.57-2.34,12.76,12.76,0,0,1,5.31-3.75,21.37,21.37,0,0,1,7.91-1.3,28.56,28.56,0,0,1,4.77.41,47.91,47.91,0,0,1,4.73,1c-.22,1.49-.44,2.89-.65,4.19s-.45,2.69-.67,4.14c-1.12-.23-2.27-.41-3.43-.58a23,23,0,0,0-3.33-.24,11.66,11.66,0,0,0-4,.56,5.16,5.16,0,0,0-2.33,1.66,5.81,5.81,0,0,0-1.08,2.75,22.85,22.85,0,0,0-.28,3.82v3.84h34.08V313Zm1.07-75.1v9.5H626.31v-9.5Z"/><path class="cls-2" d="M693.16,313v-36.1q0-6.17-3-9.52c-2-2.21-4.86-3.33-8.53-3.33a12.64,12.64,0,0,0-10.32,4.56c-2.48,3.06-3.72,7.49-3.72,13.32V313H657.28V265.23H648.9v-8.12h17.88l.45,8.16a34.77,34.77,0,0,1,3.34-3.95,16.75,16.75,0,0,1,3.72-2.87,17.73,17.73,0,0,1,4.43-1.75,22.69,22.69,0,0,1,5.35-.6,24.89,24.89,0,0,1,6.39.9,17.05,17.05,0,0,1,11,9.26,22.06,22.06,0,0,1,1.88,9.72v37Z"/><path class="cls-2" d="M763.9,275.36a18.57,18.57,0,0,1-1.93,8.8,16.94,16.94,0,0,1-5.15,5.94,21.4,21.4,0,0,1-7.32,3.39,33.37,33.37,0,0,1-8.41,1.06A35.69,35.69,0,0,1,731,293.19a15,15,0,0,0-2.35,3.32,6.25,6.25,0,0,0-.82,2.51,7.94,7.94,0,0,0,.12,1.45,1.87,1.87,0,0,0,.59,1.08,3.68,3.68,0,0,0,1.46.69,10.81,10.81,0,0,0,2.64.24h8q3.24,0,6.67.17a65.27,65.27,0,0,1,6.7.65,40,40,0,0,1,6.15,1.42,19.44,19.44,0,0,1,5.08,2.42,11.43,11.43,0,0,1,3.45,3.69,10.14,10.14,0,0,1,1.25,5.18,21.91,21.91,0,0,1-1.77,9.2,17.5,17.5,0,0,1-5.31,6.52,25.54,25.54,0,0,1-8.74,4.15A53.6,53.6,0,0,1,742,337.69a43.37,43.37,0,0,1-9.9-1.06,29.5,29.5,0,0,1-7.82-2.95,18.72,18.72,0,0,1-5.16-4.06,7.82,7.82,0,0,1-1.86-5.29,16.28,16.28,0,0,1,1.92-6.66,20.61,20.61,0,0,1,6.24-7.36l-.17-.88a8.36,8.36,0,0,1-2-.43,7,7,0,0,1-2.2-1.23,7.31,7.31,0,0,1-1.77-2.21,6.82,6.82,0,0,1-.74-3.34q0-5.84,7.26-13a16.45,16.45,0,0,1-6-5.93,14.65,14.65,0,0,1-1.94-7.22,18.92,18.92,0,0,1,1.45-7.19,18.06,18.06,0,0,1,4.36-6.41,21.66,21.66,0,0,1,7.25-4.58,26.73,26.73,0,0,1,10.13-1.76,23.6,23.6,0,0,1,15.55,5.35c.86-.58,1.83-1.17,2.89-1.77A30.92,30.92,0,0,1,762.9,258a24.55,24.55,0,0,1,3.83-1.26,20.13,20.13,0,0,1,4.21-.54l1.64,11.17c-.57,0-1.11-.05-1.58-.11l-1.29-.11c-.41,0-.72-.06-1-.06a25.47,25.47,0,0,0-3.5.28,33.47,33.47,0,0,0-3.59.73,9.38,9.38,0,0,1,1.86,3.71,17.79,17.79,0,0,1,.37,3.53Zm-21.68,53.95a27.84,27.84,0,0,0,7.12-.86,21,21,0,0,0,5.68-2.31,10.66,10.66,0,0,0,3.74-3.84,13,13,0,0,0,1.34-6.46c0-1.68-1.49-2.94-4.49-3.8s-7.35-1.28-13.11-1.28H732.05a17,17,0,0,0-3.63,6.63,23.17,23.17,0,0,0-1.17,6.35c0,1.86,1.3,3.24,3.93,4.17a34.36,34.36,0,0,0,11,1.4Zm-15-53.68a12.68,12.68,0,0,0,.82,4.61,9,9,0,0,0,2.51,3.62,12,12,0,0,0,4.27,2.35,22.88,22.88,0,0,0,13-.19,11,11,0,0,0,4.3-2.74,9.38,9.38,0,0,0,2.18-3.87A15.72,15.72,0,0,0,755,275a12.83,12.83,0,0,0-.69-4.19,9.73,9.73,0,0,0-2.25-3.69,11.37,11.37,0,0,0-4.21-2.62,18.87,18.87,0,0,0-6.52-1,21.34,21.34,0,0,0-5.2.63,12.73,12.73,0,0,0-4.47,2.07,10.72,10.72,0,0,0-3.16,3.78A12.28,12.28,0,0,0,727.25,275.63Z"/></g></g></g></svg>