<svg xmlns="http://www.w3.org/2000/svg" viewBox="0 0 1658.58 366.4"><defs><style>.cls-1,.cls-2{fill:#009ca6;}.cls-1{fill-rule:evenodd;}.cls-2{font-size:144px;stroke:#009ca6;stroke-miterlimit:10;stroke-width:2px;font-family:Shanti;}.cls-3{letter-spacing:0em;}.cls-4{letter-spacing:-0.01em;}.cls-5{letter-spacing:-0.01em;}</style></defs><g id="Layer_2" data-name="Layer 2"><g id="Layer_1-2" data-name="Layer 1"><path class="cls-1" d="M177.41,70.71c32-2.42,59.77,10.66,82,29.46,1.82,1.54,2,2.22,3.66,3.86,4.79,4.85,4.75,4.46,9.78,11,53.84,69.63,7.5,175.72-82.34,180.59C125.83,299.1,73.88,250,70.84,189.84,67.66,126.72,113.51,75.55,177.41,70.71ZM59.62,179.14c0,30.47,6.45,51.61,22.13,74.75,20.41,30.1,59.72,53,96.14,53,21.82,0,39.52-2.44,57.67-11.53,8.35-4.17,10.9-5.47,18.71-10.86,7.35-5.08,10.19-7.88,16.25-13.94,11.88-11.88,17.24-20,24.6-34.54,17.38-34.5,15.21-81.56-4.5-114.21-2-3.37-3.77-6-5.91-9.19-3.83-5.77-15.52-19-21.17-23.49C253.38,80.9,248.14,77.48,236,71.35c-34.68-17.48-81.71-15.22-114.6,4.73C105.47,85.74,93,96.68,82.27,111.83,69.7,129.6,59.62,154.93,59.62,179.14Z"/><path class="cls-1" d="M75.34,188.58c0-19.88,1.53-34.29,10.06-51.6a118.77,118.77,0,0,1,14.74-23,121.68,121.68,0,0,1,12.8-13c15.46-13.67,42.52-25.64,63.69-25.64,20.32,0,34.77,1.14,52.85,10.06a100.58,100.58,0,0,1,26.57,18.1c4,3.7,5.66,4.94,9.73,9.77,2,2.32,3.72,4.57,5.47,7.11,10.76,15.58,19.88,36.5,19.88,57.5,0,19.88-1.53,34.3-10.06,51.6A101,101,0,0,1,263,256c-3.7,4-4.94,5.66-9.77,9.73a117.38,117.38,0,0,1-23.3,15.08c-17.43,8.72-32.05,10.27-52,10.27-24.28,0-50.16-12.05-67.47-28.16-4-3.69-5.66-4.94-9.73-9.77-2-2.32-3.72-4.57-5.47-7.11a113.91,113.91,0,0,1-9.6-16.19c-4.82-10.4-10.28-26.52-10.28-41.31Zm-2.19,3.77c2,16.85,5.5,29.88,12.52,42.51a117.43,117.43,0,0,0,10.94,16.75L110,265.91c10.23,8.27,19.84,15.42,34.61,20.78,13.77,5,30.7,8.34,47.48,6.7,23.92-2.34,42.29-10.14,59.6-23.5a51.86,51.86,0,0,0,7.35-6.48c2.15-2.33,4.82-4.39,6.91-6.9,34.71-41.63,38.14-97.66,4-141.69L256.5,100.55c-22.12-18.65-50.94-30.5-82.08-27.46-16.42,1.6-30.9,5.85-42.85,12.55-10.13,5.68-23.65,15.38-31,24.35-8.24,10.08-15.59,19.92-20.79,34.6C74.9,158.39,71.16,175.55,73.15,192.35Z"/><path class="cls-1" d="M73.15,192.35c-2-16.8,1.75-34,6.64-47.76,5.2-14.68,12.55-24.52,20.79-34.6,7.34-9,20.86-18.67,31-24.35,12-6.7,26.43-11,42.85-12.55,31.14-3,60,8.81,82.08,27.46l13.39,14.27c34.17,44,30.74,100.06-4,141.69-2.09,2.51-4.76,4.57-6.91,6.9a51.86,51.86,0,0,1-7.35,6.48c-17.31,13.36-35.68,21.16-59.6,23.5-16.78,1.64-33.71-1.7-47.48-6.7-14.77-5.36-24.38-12.51-34.61-20.78l-13.36-14.3a117.43,117.43,0,0,1-10.94-16.75c-7-12.63-10.54-25.66-12.52-42.51ZM177.41,70.71c-63.9,4.84-109.75,56-106.57,119.13,3,60.17,55,109.26,119.66,105.76,89.84-4.87,136.18-111,82.34-180.59-5-6.52-5-6.13-9.78-11-1.63-1.64-1.84-2.32-3.66-3.86C237.18,81.37,209.45,68.29,177.41,70.71Z"/><path class="cls-1" d="M175.37,332.64c0,9.88-4.4,18.87-4.4,21.39,0,6.56,5.88,12.19,12,12.36,7,.2,12.51-6.74,12.51-11.73,0-4.21-4.47-9.7-4.4-25.79,0-9.89,2.77-8.18-15.73-8.18Z"/><path class="cls-1" d="M332.65,175.37h-12c0,5.84-.5,10.86.63,15.72,11.49,0,14.9-.4,25.43,2.26,1.71.43,6.55,2.15,7.29,2.15,9.36,0,17-12,9-20.32a10.9,10.9,0,0,0-3.51-2.78C351.17,168.34,347.6,175.37,332.65,175.37Z"/><path class="cls-1" d="M171,11.8c0,3.74,4.4,11.69,4.4,22v12H191.1c0-11.84-.63-15.7,2.64-27.55,1.58-5.71,3-9-1.51-13.84-5.56-6-13.16-5.92-18.58.66C172.6,6.31,171,9.9,171,11.8Z"/><path class="cls-1" d="M11.81,195.5c3.95,0,10.24-4.46,25.16-4.41,12.34,0,8.11.23,8.3-6.23.29-9.53,3.18-9.56-7-9.49-15.86.1-23.79-4.41-25.8-4.41-6.65,0-12,5.86-12.42,12.09C-.36,189.55,6.66,195.5,11.81,195.5Z"/><path class="cls-1" d="M275.4,80.37l10.54,10.85c5.84-4,7.3-9.41,19.87-16.3,4-2.19,10.48-5,10.48-12.16,0-14-17.08-15.69-21.61-7.78C281.45,78.08,280.63,72.56,275.4,80.37Z"/><path class="cls-1" d="M50.18,62.76c0,10.18,13.11,11.42,22.5,20.91,2.44,2.47,5,5.56,7.7,7.4L91.22,80.53C88,75.8,83.27,73.65,77.51,65L73.6,58.22c-.49-.9-.82-1.63-1.29-2.49C67.12,46.3,50.18,49.22,50.18,62.76Z"/><path class="cls-1" d="M50.18,303.7c0,13.23,16,16.18,21.67,7.83,2.88-4.21,4.53-10.5,11.51-17.43,2.07-2.06,4.91-6,7.71-6.75-.27-3.29-3.24-4.82-5.19-6.77s-3.77-4.24-6.13-5.81c-5.36,10.12-17.62,15.32-24.06,19.34C53.08,295.74,50.18,299.81,50.18,303.7Z"/><path class="cls-1" d="M274.62,286.56c3,.91,5.77,4.86,7.86,6.92,9.29,9.18,9.89,17.64,15.47,21,4.86,2.95,10,2,14.06-1.24,6.67-5.33,5.3-15.71-2.52-19.74-1-.52-1.18-.64-2.45-1.33-6.89-3.75-16.76-10.71-20.32-17.42Z"/><path class="cls-1" d="M103.65,280.43c-4.85-1.3-12.23-12.75-19.5-17.62,0,3-3.16,11.56,3,17.1a15.7,15.7,0,0,0,7.77,3.5C98.05,283.62,102.24,282.36,103.65,280.43Z"/><path class="cls-1" d="M82.89,95.47a24.58,24.58,0,0,0,1.89,6.92c4-.33,6.56-6.55,13.93-12.49a64.33,64.33,0,0,0,4.94-4.49c-2.78-.65-10.82-6.31-18.09,3.29C84.55,90,82.89,93.51,82.89,95.47Z"/><path class="cls-1" d="M263.45,85.41c2.43,3.63,7.95,6.88,13.11,13.3.71.87,3.87,4.48,4.5,4.94C288.32,89.93,274.76,77.83,263.45,85.41Z"/><path class="cls-1" d="M263.45,281.69c10.79,5.18,25.46-4,17.61-18.88l-8.65,9.6C269,275.88,265.78,277.27,263.45,281.69Z"/><path class="cls-1" d="M182.92,319.43c6.72,0,12.45-4.88,12.58-10.69-4.8,0-7,.63-11.95.63-5.33,0-8-.63-13.21-.63C172.12,312.44,174.52,319.43,182.92,319.43Z"/><path class="cls-1" d="M309.37,182.92c0,5.2-.63,7.88-.63,13.21,4.37-2.1,10.7-4.17,10.7-13.21,0-8.39-6.95-10.79-10.7-12.59C308.74,175.5,309.37,178,309.37,182.92Z"/><path class="cls-1" d="M47,182.92c0,9,6.27,11.09,10.69,13.21L57,183.56c-.22-4.93.76-8.11.76-13.23C52.43,171.57,47,176.43,47,182.92Z"/><path class="cls-1" d="M170.34,57.73,182.91,57c4.93-.22,8.1.77,13.22.77C194,53.36,192,47,182.92,47,174.54,47,172.14,54,170.34,57.73Z"/><path class="cls-1" d="M77,188.49c0-19.56,1.5-33.75,9.9-50.78a116.23,116.23,0,0,1,14.51-22.65A119.6,119.6,0,0,1,114,102.27C129.26,88.81,155.9,77,176.73,77c20,0,34.23,1.13,52,9.9a99.3,99.3,0,0,1,26.14,17.82c3.91,3.64,5.58,4.86,9.58,9.62a88.23,88.23,0,0,1,5.39,7c10.59,15.34,19.56,35.93,19.56,56.61,0,19.56-1.5,33.75-9.9,50.78a99.25,99.25,0,0,1-17.81,26.15c-3.64,3.91-4.87,5.57-9.62,9.58a116,116,0,0,1-22.93,14.84C212,287.9,197.62,289.43,178,289.43c-23.89,0-49.36-11.87-66.4-27.72-3.91-3.64-5.58-4.86-9.58-9.62a88.23,88.23,0,0,1-5.39-7,112.45,112.45,0,0,1-9.45-15.94C82.41,218.92,77,203.05,77,188.49Zm-2.17,3.72c2,16.59,5.42,29.41,12.33,41.84A117.23,117.23,0,0,0,98,250.54l13.15,14.08c10.07,8.13,19.53,15.17,34.06,20.45,13.56,4.92,30.22,8.2,46.74,6.59,23.55-2.3,41.63-10,58.67-23.13a50.76,50.76,0,0,0,7.23-6.37c2.11-2.3,4.74-4.33,6.81-6.8,34.16-41,37.54-96.13,3.9-139.47l-13.18-14c-21.77-18.36-50.14-30-80.79-27-16.16,1.58-30.41,5.77-42.18,12.36-10,5.59-23.28,15.14-30.51,24-8.1,9.92-15.34,19.61-20.46,34.06C76.6,158.78,72.92,175.67,74.87,192.21Z"/><path class="cls-1" d="M182.71,107c11-2.31,14.5,14.39,3.64,16.79-11.23,2.48-15.17-14.36-3.64-16.79ZM140.53,213.46c-.72-.65-.69,1-.56-1.12l7.85-.16c-8.43-14.51-6.12-6.86-12-23.37l-.94-2c-5.57,5.44-12.93,22.81-12.21,33.78,2.68-1.27,4.74-3.76,7.62-4.87,7,27.76,35.8,33.39,41.79,37.49,10,6.85,10.14,12.12,12.82,14,1.17-3.91,8.2-10.81,11.52-13.11,5.49-3.81,11.9-4.49,18.12-7.74,10.33-5.41,21.12-14.54,22.53-29.34l6.83,2.92c4-6.21-.34-21.75-5.74-30.05l-2.66-3c-3.65,6.07-3.69,10.81-10.19,19.08-1.7,2.16-3.35,3.16-4.9,5l-.24,1.44,7.95,1.35c-2.18,6.23-9.46,13.08-16.9,14.64-11,2.31-16.35-4.09-17.7-13.45-1.19-8.24-.71-21.87-.89-30.8-.16-7.7-1.41-24.76-.42-31.34h23.7L223.24,141l-32.15-.16L190.87,130c9.62-3.58,13.14-17.68,5-26-3-3.05-4.91-2.65-8.67-4.74h-5.76c-3.41,1.91-11.63,3.22-13.08,13.76-1.22,8.9,3.38,13.09,9.14,17.16.21,2.71.49,8.06-.63,10-2.33,1.29-26.62.52-31.62.56.73,2.15,5.91,10.06,7.28,11.6l23.92.47c1,7.41-.82,53.73-2.4,61-1.77,8.21-6.57,16.32-16.6,14.52C150.89,227.19,142.8,218.58,140.53,213.46Z"/><text class="cls-2" transform="translate(386.41 222.96)"><tspan class="cls-3">P</tspan><tspan class="cls-4" x="80.86" y="0">r</tspan><tspan x="132.47" y="0">o Captain </tspan><tspan class="cls-5" x="772.31" y="0">S</tspan><tspan x="847.55" y="0">taffing</tspan></text></g></g></svg>